<svg xmlns="http://www.w3.org/2000/svg" xmlns:xlink="http://www.w3.org/1999/xlink" xmlns:lucid="lucid" width="1580" height="1280"><g transform="translate(-120 -20)" lucid:page-tab-id="0_0"><path d="M310 246h80v60h-80z" fill="none"/><use xlink:href="#a" transform="matrix(1,0,0,1,309.9999999999996,246) translate(21.882716049382715 34.44444444444444)"/><path d="M278 40c17.67 0 32 17.9 32 40s-14.33 40-32 40h-96c-17.67 0-32-17.9-32-40s14.33-40 32-40z" stroke="#5e5e5e" stroke-width="3" fill="#08088c"/><use xlink:href="#b" transform="matrix(1,0,0,1,155,45) translate(29.974135802469135 26.52777777777778)"/><use xlink:href="#c" transform="matrix(1,0,0,1,155,45) translate(33.67783950617284 53.19444444444445)"/><path d="M140 268.5c0-3.3 2.7-6 6-6h168c3.3 0 6 2.7 6 6v38c0 3.3-2.7 6-6 6H146c-3.3 0-6-2.7-6-6z" stroke="#5e5e5e" stroke-width="3" fill="#ff5000"/><use xlink:href="#d" transform="matrix(1,0,0,1,152,274.5) translate(20.098765432098766 17.77777777777778)"/><use xlink:href="#e" transform="matrix(1,0,0,1,152,274.5) translate(48.4320987654321 17.77777777777778)"/><path d="M278 770.5c17.67 0 32 17.9 32 40s-14.33 40-32 40h-96c-17.67 0-32-17.9-32-40s14.33-40 32-40z" stroke="#5e5e5e" stroke-width="3" fill="#00eae4"/><use xlink:href="#f" transform="matrix(1,0,0,1,155.00000000000006,775.4999999999999) translate(19.480308641975306 26.52777777777778)"/><use xlink:href="#g" transform="matrix(1,0,0,1,155.00000000000006,775.4999999999999) translate(67.62845679012345 26.52777777777778)"/><use xlink:href="#h" transform="matrix(1,0,0,1,155.00000000000006,775.4999999999999) translate(37.96796296296296 53.19444444444445)"/><path d="M310 337.25h80v60h-80z" fill="none"/><use xlink:href="#a" transform="matrix(1,0,0,1,309.9999999999996,337.25) translate(21.882716049382715 34.44444444444444)"/><path d="M140 362c0-3.3 2.7-6 6-6h168c3.3 0 6 2.7 6 6v38c0 3.3-2.7 6-6 6H146c-3.3 0-6-2.7-6-6z" stroke="#5e5e5e" stroke-width="3" fill="#ff5000"/><use xlink:href="#d" transform="matrix(1,0,0,1,152,368) translate(16.425925925925924 17.77777777777778)"/><use xlink:href="#i" transform="matrix(1,0,0,1,152,368) translate(44.75925925925925 17.77777777777778)"/><path d="M310 424.5h80v60h-80z" fill="none"/><use xlink:href="#a" transform="matrix(1,0,0,1,310.00000000000006,424.5) translate(21.882716049382715 34.44444444444444)"/><path d="M140 458c0-3.3 2.7-6 6-6h168c3.3 0 6 2.7 6 6v38c0 3.3-2.7 6-6 6H146c-3.3 0-6-2.7-6-6z" stroke="#5e5e5e" stroke-width="3" fill="#ff5000"/><use xlink:href="#d" transform="matrix(1,0,0,1,152,464) translate(20.098765432098766 17.77777777777778)"/><use xlink:href="#j" transform="matrix(1,0,0,1,152,464) translate(48.4320987654321 17.77777777777778)"/><path d="M310 528h80v60h-80z" fill="none"/><use xlink:href="#a" transform="matrix(1,0,0,1,310.00000000000006,528) translate(21.882716049382715 34.44444444444444)"/><path d="M140 553c0-3.3 2.7-6 6-6h168c3.3 0 6 2.7 6 6v38c0 3.3-2.7 6-6 6H146c-3.3 0-6-2.7-6-6z" stroke="#5e5e5e" stroke-width="3" fill="#ff5000"/><use xlink:href="#d" transform="matrix(1,0,0,1,152,559) translate(12.691358024691354 17.77777777777778)"/><use xlink:href="#k" transform="matrix(1,0,0,1,152,559) translate(41.02469135802468 17.77777777777778)"/><path d="M310 629.5h80v60h-80z" fill="none"/><use xlink:href="#a" transform="matrix(1,0,0,1,309.99999999999983,629.5) translate(21.882716049382715 34.44444444444444)"/><path d="M140 648.83c0-3.3 2.7-6 6-6h168c3.3 0 6 2.7 6 6v63c0 3.32-2.7 6-6 6H146c-3.3 0-6-2.68-6-6z" stroke="#5e5e5e" stroke-width="3" fill="#ff5000"/><use xlink:href="#l" transform="matrix(1,0,0,1,152,654.8333333333333) translate(66.91975308641975 17.77777777777778)"/><use xlink:href="#m" transform="matrix(1,0,0,1,152,654.8333333333333) translate(12.043209876543202 44.44444444444444)"/><path d="M230 122.5v18" stroke="#5e5e5e" stroke-width="2" fill="none"/><path d="M231 122.53h-2v-1.03h2z" fill="#5e5e5e"/><path d="M230 155.76l-4.64-14.26h9.28z" stroke="#5e5e5e" stroke-width="2" fill="#5e5e5e"/><path d="M230 213v29.5" stroke="#5e5e5e" stroke-width="2" fill="none"/><path d="M231 213.03h-2V212h2z" fill="#5e5e5e"/><path d="M230 257.76l-4.64-14.26h9.28z" stroke="#5e5e5e" stroke-width="2" fill="#5e5e5e"/><path d="M230 315v21" stroke="#5e5e5e" stroke-width="2" fill="none"/><path d="M231 315.03h-2V314h2z" fill="#5e5e5e"/><path d="M230 351.26L225.36 337h9.28z" stroke="#5e5e5e" stroke-width="2" fill="#5e5e5e"/><path d="M230 408.5V432" stroke="#5e5e5e" stroke-width="2" fill="none"/><path d="M231 408.53h-2v-1.03h2z" fill="#5e5e5e"/><path d="M230 447.26L225.36 433h9.28z" stroke="#5e5e5e" stroke-width="2" fill="#5e5e5e"/><path d="M230 504.5V527" stroke="#5e5e5e" stroke-width="2" fill="none"/><path d="M231 504.53h-2v-1.03h2z" fill="#5e5e5e"/><path d="M230 542.26L225.36 528h9.28z" stroke="#5e5e5e" stroke-width="2" fill="#5e5e5e"/><path d="M230 599.5v23.33" stroke="#5e5e5e" stroke-width="2" fill="none"/><path d="M231 599.53h-2v-1.03h2z" fill="#5e5e5e"/><path d="M230 638.1l-4.64-14.27h9.28z" stroke="#5e5e5e" stroke-width="2" fill="#5e5e5e"/><path d="M230 312.5h80v60h-80z" fill="none"/><use xlink:href="#n" transform="matrix(1,0,0,1,229.99999999999972,312.5) translate(25.833333333333336 34.44444444444444)"/><path d="M230 408h80v60h-80z" fill="none"/><use xlink:href="#n" transform="matrix(1,0,0,1,229.99999999999972,408) translate(25.833333333333336 34.44444444444444)"/><path d="M230 501h80v60h-80z" fill="none"/><use xlink:href="#n" transform="matrix(1,0,0,1,230.00000000000017,501) translate(25.833333333333336 34.44444444444444)"/><path d="M230 597h80v60h-80z" fill="none"/><use xlink:href="#n" transform="matrix(1,0,0,1,230.00000000000006,597) translate(25.833333333333336 34.44444444444444)"/><path d="M140 166.5c0-3.3 2.7-6 6-6h168c3.3 0 6 2.7 6 6v38c0 3.3-2.7 6-6 6H146c-3.3 0-6-2.7-6-6z" stroke="#5e5e5e" stroke-width="3" fill="#00eae4"/><use xlink:href="#o" transform="matrix(1,0,0,1,152,172.5) translate(35.56172839506173 17.77777777777778)"/><path d="M230 717.83h80v60h-80z" fill="none"/><use xlink:href="#n" transform="matrix(1,0,0,1,230.00000000000006,717.8333333333333) translate(25.833333333333336 34.44444444444444)"/><path d="M230 720.33v30.17" stroke="#5e5e5e" stroke-width="2" fill="none"/><path d="M231 720.36h-2v-1.03h2z" fill="#5e5e5e"/><path d="M230 765.76l-4.64-14.26h9.28z" stroke="#5e5e5e" stroke-width="2" fill="#5e5e5e"/><path d="M508 779.75c17.67 0 32 13.26 32 29.63 0 16.36-14.33 29.62-32 29.62h-96c-17.67 0-32-13.26-32-29.63 0-16.36 14.33-29.62 32-29.62z" stroke="#5e5e5e" stroke-width="3" fill="#ff5000"/><use xlink:href="#p" transform="matrix(1,0,0,1,385,784.75) translate(9.043209876543202 30.27777777777778)"/><path d="M322.5 287.5H454c3.3 0 6 2.7 6 6v466.25" stroke="#5e5e5e" stroke-width="2" fill="none"/><path d="M322.53 288.5h-1.03v-2h1.03z" fill="#5e5e5e"/><path d="M460 775l-4.64-14.25h9.28z" stroke="#5e5e5e" stroke-width="2" fill="#5e5e5e"/><path d="M322.5 381H454c3.3 0 6 2.7 6 6v372.75" stroke="#5e5e5e" stroke-width="2" fill="none"/><path d="M322.53 382h-1.03v-2h1.03z" fill="#5e5e5e"/><path d="M460 775l-4.64-14.25h9.28z" stroke="#5e5e5e" stroke-width="2" fill="#5e5e5e"/><path d="M322.5 477H454c3.3 0 6 2.7 6 6v276.75" stroke="#5e5e5e" stroke-width="2" fill="none"/><path d="M322.53 478h-1.03v-2h1.03z" fill="#5e5e5e"/><path d="M460 775l-4.64-14.25h9.28z" stroke="#5e5e5e" stroke-width="2" fill="#5e5e5e"/><path d="M322.5 572H454c3.3 0 6 2.7 6 6v181.75" stroke="#5e5e5e" stroke-width="2" fill="none"/><path d="M322.53 573h-1.03v-2h1.03z" fill="#5e5e5e"/><path d="M460 775l-4.64-14.25h9.28z" stroke="#5e5e5e" stroke-width="2" fill="#5e5e5e"/><path d="M322.5 680.33H454c3.3 0 6 2.7 6 6v73.42" stroke="#5e5e5e" stroke-width="2" fill="none"/><path d="M322.53 681.33h-1.03v-2h1.03z" fill="#5e5e5e"/><path d="M460 775l-4.64-14.25h9.28z" stroke="#5e5e5e" stroke-width="2" fill="#5e5e5e"/><path d="M810 240h80v60h-80z" fill="none"/><use xlink:href="#a" transform="matrix(1,0,0,1,809.9999999999995,240) translate(21.882716049382715 34.44444444444444)"/><path d="M778 40c17.67 0 32 17.9 32 40s-14.33 40-32 40h-96c-17.67 0-32-17.9-32-40s14.33-40 32-40z" stroke="#5e5e5e" stroke-width="3" fill="#08088c"/><use xlink:href="#b" transform="matrix(1,0,0,1,655,45) translate(29.974135802469135 26.52777777777778)"/><use xlink:href="#c" transform="matrix(1,0,0,1,655,45) translate(33.67783950617284 53.19444444444445)"/><path d="M640 268.5c0-3.3 2.7-6 6-6h168c3.3 0 6 2.7 6 6v38c0 3.3-2.7 6-6 6H646c-3.3 0-6-2.7-6-6z" stroke="#5e5e5e" stroke-width="3" fill="#00eae4"/><use xlink:href="#q" transform="matrix(1,0,0,1,652,274.5) translate(20.77777777777778 17.77777777777778)"/><use xlink:href="#r" transform="matrix(1,0,0,1,652,274.5) translate(49.111111111111114 17.77777777777778)"/><path d="M778 779c17.67 0 32 13.43 32 30s-14.33 30-32 30h-96c-17.67 0-32-13.43-32-30s14.33-30 32-30z" stroke="#5e5e5e" stroke-width="3" fill="#ff5000"/><use xlink:href="#p" transform="matrix(1,0,0,1,654.9999999999995,784) translate(9.043209876543202 30.27777777777778)"/><path d="M810 337.25h80v60h-80z" fill="none"/><use xlink:href="#a" transform="matrix(1,0,0,1,810,337.25) translate(21.882716049382715 34.44444444444444)"/><path d="M640 362c0-3.3 2.7-6 6-6h168c3.3 0 6 2.7 6 6v38c0 3.3-2.7 6-6 6H646c-3.3 0-6-2.7-6-6z" stroke="#5e5e5e" stroke-width="3" fill="#00eae4"/><use xlink:href="#q" transform="matrix(1,0,0,1,652,368) translate(17.104938271604937 17.77777777777778)"/><use xlink:href="#s" transform="matrix(1,0,0,1,652,368) translate(45.438271604938265 17.77777777777778)"/><path d="M810 429.5h80v60h-80z" fill="none"/><use xlink:href="#a" transform="matrix(1,0,0,1,809.9999999999995,429.5) translate(21.882716049382715 34.44444444444444)"/><path d="M640 457c0-3.3 2.7-6 6-6h168c3.3 0 6 2.7 6 6v38c0 3.3-2.7 6-6 6H646c-3.3 0-6-2.7-6-6z" stroke="#5e5e5e" stroke-width="3" fill="#00eae4"/><use xlink:href="#q" transform="matrix(1,0,0,1,652,463) translate(20.77777777777778 17.77777777777778)"/><use xlink:href="#t" transform="matrix(1,0,0,1,652,463) translate(49.111111111111114 17.77777777777778)"/><path d="M810 528h80v60h-80z" fill="none"/><use xlink:href="#a" transform="matrix(1,0,0,1,809.9999999999998,528) translate(21.882716049382715 34.44444444444444)"/><path d="M640 553c0-3.3 2.7-6 6-6h168c3.3 0 6 2.7 6 6v38c0 3.3-2.7 6-6 6H646c-3.3 0-6-2.7-6-6z" stroke="#5e5e5e" stroke-width="3" fill="#00eae4"/><use xlink:href="#q" transform="matrix(1,0,0,1,652,559) translate(13.370370370370367 17.77777777777778)"/><use xlink:href="#u" transform="matrix(1,0,0,1,652,559) translate(41.703703703703695 17.77777777777778)"/><path d="M810 628h80v60h-80z" fill="none"/><use xlink:href="#a" transform="matrix(1,0,0,1,809.9999999999998,628) translate(21.882716049382715 34.44444444444444)"/><path d="M640 647.67c0-3.32 2.7-6 6-6h168c3.3 0 6 2.68 6 6V713c0 3.3-2.7 6-6 6H646c-3.3 0-6-2.7-6-6z" stroke="#5e5e5e" stroke-width="3" fill="#00eae4"/><use xlink:href="#v" transform="matrix(1,0,0,1,652,653.6666666666666) translate(66.91975308641975 17.77777777777778)"/><use xlink:href="#w" transform="matrix(1,0,0,1,652,653.6666666666666) translate(12.722222222222214 44.44444444444444)"/><path d="M730 212.5v30" stroke="#5e5e5e" stroke-width="2" fill="none"/><path d="M731 212.53h-2v-1.03h2z" fill="#5e5e5e"/><path d="M730 257.76l-4.64-14.26h9.28z" stroke="#5e5e5e" stroke-width="2" fill="#5e5e5e"/><path d="M730 122.5V140" stroke="#5e5e5e" stroke-width="2" fill="none"/><path d="M731 122.53h-2v-1.03h2z" fill="#5e5e5e"/><path d="M730 155.26L725.36 141h9.28z" stroke="#5e5e5e" stroke-width="2" fill="#5e5e5e"/><path d="M730 315v21" stroke="#5e5e5e" stroke-width="2" fill="none"/><path d="M731 315.03h-2V314h2z" fill="#5e5e5e"/><path d="M730 351.26L725.36 337h9.28z" stroke="#5e5e5e" stroke-width="2" fill="#5e5e5e"/><path d="M730 408.5V431" stroke="#5e5e5e" stroke-width="2" fill="none"/><path d="M731 408.53h-2v-1.03h2z" fill="#5e5e5e"/><path d="M730 446.26L725.36 432h9.28z" stroke="#5e5e5e" stroke-width="2" fill="#5e5e5e"/><path d="M730 503.5V527" stroke="#5e5e5e" stroke-width="2" fill="none"/><path d="M731 503.53h-2v-1.03h2z" fill="#5e5e5e"/><path d="M730 542.26L725.36 528h9.28z" stroke="#5e5e5e" stroke-width="2" fill="#5e5e5e"/><path d="M730 599.5v22.16" stroke="#5e5e5e" stroke-width="2" fill="none"/><path d="M731 599.53h-2v-1.03h2z" fill="#5e5e5e"/><path d="M730 636.93l-4.64-14.27h9.28z" stroke="#5e5e5e" stroke-width="2" fill="#5e5e5e"/><path d="M730 312.5h80v60h-80z" fill="none"/><use xlink:href="#n" transform="matrix(1,0,0,1,730,312.5) translate(25.833333333333336 34.44444444444444)"/><path d="M730 408h80v60h-80z" fill="none"/><use xlink:href="#n" transform="matrix(1,0,0,1,730.0000000000001,408) translate(25.833333333333336 34.44444444444444)"/><path d="M730 501h80v60h-80z" fill="none"/><use xlink:href="#n" transform="matrix(1,0,0,1,730.0000000000001,501) translate(25.833333333333336 34.44444444444444)"/><path d="M730 592h80v60h-80z" fill="none"/><use xlink:href="#n" transform="matrix(1,0,0,1,730,592) translate(25.833333333333336 34.44444444444444)"/><path d="M640 166c0-3.3 2.7-6 6-6h168c3.3 0 6 2.7 6 6v38c0 3.3-2.7 6-6 6H646c-3.3 0-6-2.7-6-6z" stroke="#5e5e5e" stroke-width="3" fill="#ff5000"/><use xlink:href="#x" transform="matrix(1,0,0,1,652,172) translate(34.88271604938271 17.77777777777778)"/><path d="M730 717.83h80v60h-80z" fill="none"/><use xlink:href="#n" transform="matrix(1,0,0,1,730,717.8333333333333) translate(25.833333333333336 34.44444444444444)"/><path d="M730 721.5V759" stroke="#5e5e5e" stroke-width="2" fill="none"/><path d="M731 721.53h-2v-1.03h2z" fill="#5e5e5e"/><path d="M730 774.26L725.36 760h9.28z" stroke="#5e5e5e" stroke-width="2" fill="#5e5e5e"/><path d="M1008 770.5c17.67 0 32 17.9 32 40s-14.33 40-32 40h-96c-17.67 0-32-17.9-32-40s14.33-40 32-40z" stroke="#5e5e5e" stroke-width="3" fill="#00eae4"/><use xlink:href="#f" transform="matrix(1,0,0,1,885,775.4999999999999) translate(19.480308641975306 26.52777777777778)"/><use xlink:href="#g" transform="matrix(1,0,0,1,885,775.4999999999999) translate(67.62845679012345 26.52777777777778)"/><use xlink:href="#h" transform="matrix(1,0,0,1,885,775.4999999999999) translate(37.96796296296296 53.19444444444445)"/><path d="M822.5 287.5H954c3.3 0 6 2.7 6 6v457" stroke="#5e5e5e" stroke-width="2" fill="none"/><path d="M822.53 288.5h-1.03v-2h1.03z" fill="#5e5e5e"/><path d="M960 765.76l-4.64-14.26h9.28z" stroke="#5e5e5e" stroke-width="2" fill="#5e5e5e"/><path d="M822.5 381H954c3.3 0 6 2.7 6 6v363.5" stroke="#5e5e5e" stroke-width="2" fill="none"/><path d="M822.53 382h-1.03v-2h1.03z" fill="#5e5e5e"/><path d="M960 765.76l-4.64-14.26h9.28z" stroke="#5e5e5e" stroke-width="2" fill="#5e5e5e"/><path d="M822.5 476H954c3.3 0 6 2.7 6 6v268.5" stroke="#5e5e5e" stroke-width="2" fill="none"/><path d="M822.53 477h-1.03v-2h1.03z" fill="#5e5e5e"/><path d="M960 765.76l-4.64-14.26h9.28z" stroke="#5e5e5e" stroke-width="2" fill="#5e5e5e"/><path d="M822.5 572H954c3.3 0 6 2.7 6 6v172.5" stroke="#5e5e5e" stroke-width="2" fill="none"/><path d="M822.53 573h-1.03v-2h1.03z" fill="#5e5e5e"/><path d="M960 765.76l-4.64-14.26h9.28z" stroke="#5e5e5e" stroke-width="2" fill="#5e5e5e"/><path d="M822.5 680.33H954c3.3 0 6 2.7 6 6v64.17" stroke="#5e5e5e" stroke-width="2" fill="none"/><path d="M822.53 681.33h-1.03v-2h1.03z" fill="#5e5e5e"/><path d="M960 765.76l-4.64-14.26h9.28z" stroke="#5e5e5e" stroke-width="2" fill="#5e5e5e"/><path d="M1470 323.5h80v60h-80z" fill="none"/><use xlink:href="#a" transform="matrix(1,0,0,1,1469.9999999999995,323.5) translate(21.882716049382715 34.44444444444444)"/><path d="M1438 40c17.67 0 32 17.9 32 40s-14.33 40-32 40h-96c-17.67 0-32-17.9-32-40s14.33-40 32-40z" stroke="#5e5e5e" stroke-width="3" fill="#08088c"/><use xlink:href="#b" transform="matrix(1,0,0,1,1315,45) translate(29.974135802469135 26.52777777777778)"/><use xlink:href="#c" transform="matrix(1,0,0,1,1315,45) translate(33.67783950617284 53.19444444444445)"/><path d="M1300 356c0-3.3 2.7-6 6-6h168c3.3 0 6 2.7 6 6v38c0 3.3-2.7 6-6 6h-168c-3.3 0-6-2.7-6-6z" stroke="#5e5e5e" stroke-width="3" fill="#00eae4"/><use xlink:href="#q" transform="matrix(1,0,0,1,1312,362) translate(20.77777777777778 17.77777777777778)"/><use xlink:href="#r" transform="matrix(1,0,0,1,1312,362) translate(49.111111111111114 17.77777777777778)"/><path d="M1228 1210c17.67 0 32 13.43 32 30s-14.33 30-32 30h-96c-17.67 0-32-13.43-32-30s14.33-30 32-30z" stroke="#5e5e5e" stroke-width="3" fill="#ff5000"/><use xlink:href="#p" transform="matrix(1,0,0,1,1105,1215) translate(9.043209876543202 30.27777777777778)"/><path d="M1470 502h80v60h-80z" fill="none"/><use xlink:href="#a" transform="matrix(1,0,0,1,1470,502) translate(21.882716049382715 34.44444444444444)"/><path d="M1300 527.88c0-3.32 2.7-6 6-6h168c3.3 0 6 2.68 6 6v38c0 3.3-2.7 6-6 6h-168c-3.3 0-6-2.7-6-6z" stroke="#5e5e5e" stroke-width="3" fill="#00eae4"/><use xlink:href="#q" transform="matrix(1,0,0,1,1312,533.875) translate(17.104938271604937 17.77777777777778)"/><use xlink:href="#s" transform="matrix(1,0,0,1,1312,533.875) translate(45.438271604938265 17.77777777777778)"/><path d="M1470 677.83h80v60h-80z" fill="none"/><use xlink:href="#a" transform="matrix(1,0,0,1,1470,677.8333333333334) translate(21.882716049382715 34.44444444444444)"/><path d="M1300 703c0-3.3 2.7-6 6-6h168c3.3 0 6 2.7 6 6v38c0 3.3-2.7 6-6 6h-168c-3.3 0-6-2.7-6-6z" stroke="#5e5e5e" stroke-width="3" fill="#00eae4"/><use xlink:href="#q" transform="matrix(1,0,0,1,1312,709.0000000000001) translate(20.77777777777778 17.77777777777778)"/><use xlink:href="#t" transform="matrix(1,0,0,1,1312,709.0000000000001) translate(49.111111111111114 17.77777777777778)"/><path d="M1470 846.5h80v60h-80z" fill="none"/><use xlink:href="#a" transform="matrix(1,0,0,1,1469.9999999999998,846.5000000000001) translate(21.882716049382715 34.44444444444444)"/><path d="M1300 880.5c0-3.3 2.7-6 6-6h168c3.3 0 6 2.7 6 6v38c0 3.3-2.7 6-6 6h-168c-3.3 0-6-2.7-6-6z" stroke="#5e5e5e" stroke-width="3" fill="#00eae4"/><use xlink:href="#q" transform="matrix(1,0,0,1,1312,886.5000000000001) translate(13.370370370370367 17.77777777777778)"/><use xlink:href="#u" transform="matrix(1,0,0,1,1312,886.5000000000001) translate(41.703703703703695 17.77777777777778)"/><path d="M1470 1060h80v60h-80z" fill="none"/><use xlink:href="#a" transform="matrix(1,0,0,1,1470.0000000000002,1060) translate(21.882716049382715 34.44444444444444)"/><path d="M1300 1086c0-3.3 2.7-6 6-6h168c3.3 0 6 2.7 6 6v65.33c0 3.32-2.7 6-6 6h-168c-3.3 0-6-2.68-6-6z" stroke="#5e5e5e" stroke-width="3" fill="#00eae4"/><use xlink:href="#v" transform="matrix(1,0,0,1,1312,1092) translate(66.91975308641975 17.77777777777778)"/><use xlink:href="#w" transform="matrix(1,0,0,1,1312,1092) translate(12.722222222222214 44.44444444444444)"/><path d="M1390 315v15" stroke="#5e5e5e" stroke-width="2" fill="none"/><path d="M1391 315.03h-2V314h2z" fill="#5e5e5e"/><path d="M1390 345.26l-4.64-14.26h9.28z" stroke="#5e5e5e" stroke-width="2" fill="#5e5e5e"/><path d="M1390 122.5v120" stroke="#5e5e5e" stroke-width="2" fill="none"/><path d="M1391 122.53h-2v-1.03h2z" fill="#5e5e5e"/><path d="M1390 257.76l-4.64-14.26h9.28z" stroke="#5e5e5e" stroke-width="2" fill="#5e5e5e"/><path d="M1390 487v14.87" stroke="#5e5e5e" stroke-width="2" fill="none"/><path d="M1391 487.03h-2V486h2z" fill="#5e5e5e"/><path d="M1390 517.14l-4.64-14.27h9.28z" stroke="#5e5e5e" stroke-width="2" fill="#5e5e5e"/><path d="M1390 402.5v12" stroke="#5e5e5e" stroke-width="2" fill="none"/><path d="M1391 402.53h-2v-1.03h2z" fill="#5e5e5e"/><path d="M1390 429.76l-4.64-14.26h9.28z" stroke="#5e5e5e" stroke-width="2" fill="#5e5e5e"/><path d="M1390 574.38v14.87" stroke="#5e5e5e" stroke-width="2" fill="none"/><path d="M1391 574.4h-2v-1.02h2z" fill="#5e5e5e"/><path d="M1390 604.5l-4.64-14.25h9.28z" stroke="#5e5e5e" stroke-width="2" fill="#5e5e5e"/><path d="M1390 661.75V677" stroke="#5e5e5e" stroke-width="2" fill="none"/><path d="M1391 661.78h-2v-1.03h2z" fill="#5e5e5e"/><path d="M1390 692.26l-4.64-14.26h9.28z" stroke="#5e5e5e" stroke-width="2" fill="#5e5e5e"/><path d="M1390 749.5v16" stroke="#5e5e5e" stroke-width="2" fill="none"/><path d="M1391 749.53h-2v-1.03h2z" fill="#5e5e5e"/><path d="M1390 780.76l-4.64-14.26h9.28z" stroke="#5e5e5e" stroke-width="2" fill="#5e5e5e"/><path d="M1390 838v16.5" stroke="#5e5e5e" stroke-width="2" fill="none"/><path d="M1391 838.03h-2V837h2z" fill="#5e5e5e"/><path d="M1390 869.76l-4.64-14.26h9.28z" stroke="#5e5e5e" stroke-width="2" fill="#5e5e5e"/><path d="M1390 1039v21" stroke="#5e5e5e" stroke-width="2" fill="none"/><path d="M1391 1039.03h-2V1038h2z" fill="#5e5e5e"/><path d="M1390 1075.26l-4.64-14.26h9.28z" stroke="#5e5e5e" stroke-width="2" fill="#5e5e5e"/><path d="M1390 927v14.5" stroke="#5e5e5e" stroke-width="2" fill="none"/><path d="M1391 927.03h-2V926h2z" fill="#5e5e5e"/><path d="M1390 956.76l-4.64-14.26h9.28z" stroke="#5e5e5e" stroke-width="2" fill="#5e5e5e"/><path d="M1390 479h80v60h-80z" fill="none"/><use xlink:href="#n" transform="matrix(1,0,0,1,1390,479) translate(25.833333333333336 34.44444444444444)"/><path d="M1390 652h80v60h-80z" fill="none"/><use xlink:href="#n" transform="matrix(1,0,0,1,1390,652) translate(25.833333333333336 34.44444444444444)"/><path d="M1390 827.5h80v60h-80z" fill="none"/><use xlink:href="#n" transform="matrix(1,0,0,1,1390,827.5000000000001) translate(25.833333333333336 34.44444444444444)"/><path d="M1390 1036.5h80v60h-80z" fill="none"/><use xlink:href="#n" transform="matrix(1,0,0,1,1390,1036.5) translate(25.833333333333336 34.44444444444444)"/><path d="M1280 166c0-3.3 2.7-6 6-6h208c3.3 0 6 2.7 6 6v38c0 3.3-2.7 6-6 6h-208c-3.3 0-6-2.7-6-6z" stroke="#5e5e5e" stroke-width="3" fill="#ffce00"/><use xlink:href="#y" transform="matrix(1,0,0,1,1292,172) translate(4.790123456790141 17.77777777777778)"/><path d="M1390 917.5h80v60h-80z" fill="none"/><use xlink:href="#n" transform="matrix(1,0,0,1,1390,917.5000000000003) translate(25.833333333333336 34.44444444444444)"/><path d="M1648 1200c17.67 0 32 17.9 32 40s-14.33 40-32 40h-96c-17.67 0-32-17.9-32-40s14.33-40 32-40z" stroke="#5e5e5e" stroke-width="3" fill="#00eae4"/><use xlink:href="#f" transform="matrix(1,0,0,1,1525,1205) translate(19.480308641975306 26.52777777777778)"/><use xlink:href="#g" transform="matrix(1,0,0,1,1525,1205) translate(67.62845679012345 26.52777777777778)"/><use xlink:href="#h" transform="matrix(1,0,0,1,1525,1205) translate(37.96796296296296 53.19444444444445)"/><path d="M1482.5 375H1594c3.3 0 6 2.7 6 6v799" stroke="#5e5e5e" stroke-width="2" fill="none"/><path d="M1482.53 376h-1.03v-2h1.03z" fill="#5e5e5e"/><path d="M1600 1195.26l-4.64-14.26h9.28z" stroke="#5e5e5e" stroke-width="2" fill="#5e5e5e"/><path d="M1482.5 546.88H1594c3.3 0 6 2.68 6 6V1180" stroke="#5e5e5e" stroke-width="2" fill="none"/><path d="M1482.53 547.88h-1.03v-2h1.03z" fill="#5e5e5e"/><path d="M1600 1195.26l-4.64-14.26h9.28z" stroke="#5e5e5e" stroke-width="2" fill="#5e5e5e"/><path d="M1482.5 722H1594c3.3 0 6 2.7 6 6v452" stroke="#5e5e5e" stroke-width="2" fill="none"/><path d="M1482.53 723h-1.03v-2h1.03z" fill="#5e5e5e"/><path d="M1600 1195.26l-4.64-14.26h9.28z" stroke="#5e5e5e" stroke-width="2" fill="#5e5e5e"/><path d="M1482.5 899.5H1594c3.3 0 6 2.7 6 6V1180" stroke="#5e5e5e" stroke-width="2" fill="none"/><path d="M1482.53 900.5h-1.03v-2h1.03z" fill="#5e5e5e"/><path d="M1600 1195.26l-4.64-14.26h9.28z" stroke="#5e5e5e" stroke-width="2" fill="#5e5e5e"/><path d="M1482.5 1118.67H1594c3.3 0 6 2.68 6 6V1180" stroke="#5e5e5e" stroke-width="2" fill="none"/><path d="M1482.53 1119.67h-1.03v-2h1.03z" fill="#5e5e5e"/><path d="M1600 1195.26l-4.64-14.26h9.28z" stroke="#5e5e5e" stroke-width="2" fill="#5e5e5e"/><path d="M1300 268.5c0-3.3 2.7-6 6-6h168c3.3 0 6 2.7 6 6v38c0 3.3-2.7 6-6 6h-168c-3.3 0-6-2.7-6-6z" stroke="#5e5e5e" stroke-width="3" fill="#ff5000"/><use xlink:href="#d" transform="matrix(1,0,0,1,1312,274.5) translate(20.098765432098766 17.77777777777778)"/><use xlink:href="#e" transform="matrix(1,0,0,1,1312,274.5) translate(48.4320987654321 17.77777777777778)"/><path d="M1297.5 287.5H1186c-3.3 0-6 2.7-6 6V1190" stroke="#5e5e5e" stroke-width="2" fill="none"/><path d="M1298.5 288.5h-1.03v-2h1.03z" fill="#5e5e5e"/><path d="M1180 1205.26l-4.64-14.26h9.28z" stroke="#5e5e5e" stroke-width="2" fill="#5e5e5e"/><path d="M1300 440.5c0-3.3 2.7-6 6-6h168c3.3 0 6 2.7 6 6v38c0 3.3-2.7 6-6 6h-168c-3.3 0-6-2.7-6-6z" stroke="#5e5e5e" stroke-width="3" fill="#ff5000"/><use xlink:href="#d" transform="matrix(1,0,0,1,1312,446.5) translate(16.425925925925924 17.77777777777778)"/><use xlink:href="#i" transform="matrix(1,0,0,1,1312,446.5) translate(44.75925925925925 17.77777777777778)"/><path d="M1297.5 459.5H1186c-3.3 0-6 2.7-6 6V1190" stroke="#5e5e5e" stroke-width="2" fill="none"/><path d="M1298.5 460.5h-1.03v-2h1.03z" fill="#5e5e5e"/><path d="M1180 1205.26l-4.64-14.26h9.28z" stroke="#5e5e5e" stroke-width="2" fill="#5e5e5e"/><path d="M1300 615.25c0-3.3 2.7-6 6-6h168c3.3 0 6 2.7 6 6v38c0 3.3-2.7 6-6 6h-168c-3.3 0-6-2.7-6-6z" stroke="#5e5e5e" stroke-width="3" fill="#ff5000"/><use xlink:href="#d" transform="matrix(1,0,0,1,1312,621.2499999999999) translate(20.098765432098766 17.77777777777778)"/><use xlink:href="#j" transform="matrix(1,0,0,1,1312,621.2499999999999) translate(48.4320987654321 17.77777777777778)"/><path d="M1297.5 634.25H1186c-3.3 0-6 2.7-6 6V1190" stroke="#5e5e5e" stroke-width="2" fill="none"/><path d="M1298.5 635.25h-1.03v-2h1.03z" fill="#5e5e5e"/><path d="M1180 1205.26l-4.64-14.26h9.28z" stroke="#5e5e5e" stroke-width="2" fill="#5e5e5e"/><path d="M1300 791.5c0-3.3 2.7-6 6-6h168c3.3 0 6 2.7 6 6v38c0 3.3-2.7 6-6 6h-168c-3.3 0-6-2.7-6-6z" stroke="#5e5e5e" stroke-width="3" fill="#ff5000"/><use xlink:href="#d" transform="matrix(1,0,0,1,1312,797.4999999999999) translate(12.691358024691354 17.77777777777778)"/><use xlink:href="#k" transform="matrix(1,0,0,1,1312,797.4999999999999) translate(41.02469135802468 17.77777777777778)"/><path d="M1297.5 810.5H1186c-3.3 0-6 2.7-6 6V1190" stroke="#5e5e5e" stroke-width="2" fill="none"/><path d="M1298.5 811.5h-1.03v-2h1.03z" fill="#5e5e5e"/><path d="M1180 1205.26l-4.64-14.26h9.28z" stroke="#5e5e5e" stroke-width="2" fill="#5e5e5e"/><path d="M1300 967.5c0-3.3 2.7-6 6-6h168c3.3 0 6 2.7 6 6v63c0 3.3-2.7 6-6 6h-168c-3.3 0-6-2.7-6-6z" stroke="#5e5e5e" stroke-width="3" fill="#ff5000"/><g><use xlink:href="#l" transform="matrix(1,0,0,1,1312,973.5) translate(66.91975308641975 17.77777777777778)"/><use xlink:href="#m" transform="matrix(1,0,0,1,1312,973.5) translate(12.043209876543202 44.44444444444444)"/></g><path d="M1297.5 999H1186c-3.3 0-6 2.7-6 6v185" stroke="#5e5e5e" stroke-width="2" fill="none"/><path d="M1298.5 1000h-1.03v-2h1.03z" fill="#5e5e5e"/><path d="M1180 1205.26l-4.64-14.26h9.28z" stroke="#5e5e5e" stroke-width="2" fill="#5e5e5e"/><path d="M1220 231h80v60h-80z" fill="none"/><g><use xlink:href="#a" transform="matrix(1,0,0,1,1220,231) translate(21.882716049382715 34.44444444444444)"/></g><path d="M1390 390h80v60h-80z" fill="none"/><g><use xlink:href="#n" transform="matrix(1,0,0,1,1390,390.00000000000006) translate(25.833333333333336 34.44444444444444)"/></g><path d="M1390 306h80v60h-80z" fill="none"/><g><use xlink:href="#n" transform="matrix(1,0,0,1,1389.9999999999995,306) translate(25.833333333333336 34.44444444444444)"/></g><path d="M1220 406h80v60h-80z" fill="none"/><g><use xlink:href="#a" transform="matrix(1,0,0,1,1220,406.00000000000006) translate(21.882716049382715 34.44444444444444)"/></g><path d="M1220 580h80v60h-80z" fill="none"/><g><use xlink:href="#a" transform="matrix(1,0,0,1,1220,580) translate(21.882716049382715 34.44444444444444)"/></g><path d="M1390 562h80v60h-80z" fill="none"/><g><use xlink:href="#n" transform="matrix(1,0,0,1,1389.9999999999995,562) translate(25.833333333333336 34.44444444444444)"/></g><path d="M1220 757.5h80v60h-80z" fill="none"/><g><use xlink:href="#a" transform="matrix(1,0,0,1,1220,757.5000000000001) translate(21.882716049382715 34.44444444444444)"/></g><path d="M1390 739.75h80v60h-80z" fill="none"/><g><use xlink:href="#n" transform="matrix(1,0,0,1,1389.9999999999995,739.75) translate(25.833333333333336 34.44444444444444)"/></g><path d="M1220 940h80v60h-80z" fill="none"/><g><use xlink:href="#a" transform="matrix(1,0,0,1,1220,940) translate(21.882716049382715 34.44444444444444)"/></g><defs><path fill="#333" d="M137-103V0h-34v-103L8-248h37l75 118 75-118h37" id="z"/><path fill="#333" d="M100-194c63 0 86 42 84 106H49c0 40 14 67 53 68 26 1 43-12 49-29l28 8c-11 28-37 45-77 45C44 4 14-33 15-96c1-61 26-98 85-98zm52 81c6-60-76-77-97-28-3 7-6 17-6 28h103" id="A"/><path fill="#333" d="M135-143c-3-34-86-38-87 0 15 53 115 12 119 90S17 21 10-45l28-5c4 36 97 45 98 0-10-56-113-15-118-90-4-57 82-63 122-42 12 7 21 19 24 35" id="B"/><g id="a"><use transform="matrix(0.06172839506172839,0,0,0.06172839506172839,0,0)" xlink:href="#z"/><use transform="matrix(0.06172839506172839,0,0,0.06172839506172839,12.777777777777777,0)" xlink:href="#A"/><use transform="matrix(0.06172839506172839,0,0,0.06172839506172839,25.123456790123456,0)" xlink:href="#B"/></g><path fill="#fff" d="M30-248c87 1 191-15 191 75 0 78-77 80-158 76V0H30v-248zm33 125c57 0 124 11 124-50 0-59-68-47-124-48v98" id="C"/><path fill="#fff" d="M24 0v-261h32V0H24" id="D"/><path fill="#fff" d="M141-36C126-15 110 5 73 4 37 3 15-17 15-53c-1-64 63-63 125-63 3-35-9-54-41-54-24 1-41 7-42 31l-33-3c5-37 33-52 76-52 45 0 72 20 72 64v82c-1 20 7 32 28 27v20c-31 9-61-2-59-35zM48-53c0 20 12 33 32 33 41-3 63-29 60-74-43 2-92-5-92 41" id="E"/><path fill="#fff" d="M179-190L93 31C79 59 56 82 12 73V49c39 6 53-20 64-50L1-190h34L92-34l54-156h33" id="F"/><path fill="#fff" d="M115-194c53 0 69 39 70 98 0 66-23 100-70 100C84 3 66-7 56-30L54 0H23l1-261h32v101c10-23 28-34 59-34zm-8 174c40 0 45-34 45-75 0-40-5-75-45-74-42 0-51 32-51 76 0 43 10 73 51 73" id="G"/><path fill="#fff" d="M96-169c-40 0-48 33-48 73s9 75 48 75c24 0 41-14 43-38l32 2c-6 37-31 61-74 61-59 0-76-41-82-99-10-93 101-131 147-64 4 7 5 14 7 22l-32 3c-4-21-16-35-41-35" id="H"/><path fill="#fff" d="M143 0L79-87 56-68V0H24v-261h32v163l83-92h37l-77 82L181 0h-38" id="I"/><g id="b"><use transform="matrix(0.06172839506172839,0,0,0.06172839506172839,0,0)" xlink:href="#C"/><use transform="matrix(0.06172839506172839,0,0,0.06172839506172839,14.814814814814813,0)" xlink:href="#D"/><use transform="matrix(0.06172839506172839,0,0,0.06172839506172839,19.691358024691354,0)" xlink:href="#E"/><use transform="matrix(0.06172839506172839,0,0,0.06172839506172839,32.03703703703703,0)" xlink:href="#F"/><use transform="matrix(0.06172839506172839,0,0,0.06172839506172839,43.14814814814814,0)" xlink:href="#G"/><use transform="matrix(0.06172839506172839,0,0,0.06172839506172839,55.493827160493815,0)" xlink:href="#E"/><use transform="matrix(0.06172839506172839,0,0,0.06172839506172839,67.83950617283949,0)" xlink:href="#H"/><use transform="matrix(0.06172839506172839,0,0,0.06172839506172839,78.9506172839506,0)" xlink:href="#I"/></g><path fill="#fff" d="M233-177c-1 41-23 64-60 70L243 0h-38l-65-103H63V0H30v-248c88 3 205-21 203 71zM63-129c60-2 137 13 137-47 0-61-80-42-137-45v92" id="J"/><path fill="#fff" d="M100-194c63 0 86 42 84 106H49c0 40 14 67 53 68 26 1 43-12 49-29l28 8c-11 28-37 45-77 45C44 4 14-33 15-96c1-61 26-98 85-98zm52 81c6-60-76-77-97-28-3 7-6 17-6 28h103" id="K"/><path fill="#fff" d="M145-31C134-9 116 4 85 4 32 4 16-35 15-94c0-59 17-99 70-100 32-1 48 14 60 33 0-11-1-24 2-32h30l-1 268h-32zM93-21c41 0 51-33 51-76s-8-73-50-73c-40 0-46 35-46 75s5 74 45 74" id="L"/><path fill="#fff" d="M84 4C-5 8 30-112 23-190h32v120c0 31 7 50 39 49 72-2 45-101 50-169h31l1 190h-30c-1-10 1-25-2-33-11 22-28 36-60 37" id="M"/><path fill="#fff" d="M135-143c-3-34-86-38-87 0 15 53 115 12 119 90S17 21 10-45l28-5c4 36 97 45 98 0-10-56-113-15-118-90-4-57 82-63 122-42 12 7 21 19 24 35" id="N"/><path fill="#fff" d="M59-47c-2 24 18 29 38 22v24C64 9 27 4 27-40v-127H5v-23h24l9-43h21v43h35v23H59v120" id="O"/><g id="c"><use transform="matrix(0.06172839506172839,0,0,0.06172839506172839,0,0)" xlink:href="#J"/><use transform="matrix(0.06172839506172839,0,0,0.06172839506172839,15.987654320987653,0)" xlink:href="#K"/><use transform="matrix(0.06172839506172839,0,0,0.06172839506172839,28.333333333333332,0)" xlink:href="#L"/><use transform="matrix(0.06172839506172839,0,0,0.06172839506172839,40.67901234567901,0)" xlink:href="#M"/><use transform="matrix(0.06172839506172839,0,0,0.06172839506172839,53.02469135802469,0)" xlink:href="#K"/><use transform="matrix(0.06172839506172839,0,0,0.06172839506172839,65.37037037037037,0)" xlink:href="#N"/><use transform="matrix(0.06172839506172839,0,0,0.06172839506172839,76.48148148148148,0)" xlink:href="#O"/></g><path fill="#fff" d="M33 0v-248h34V0H33" id="P"/><path fill="#fff" d="M190 0L58-211 59 0H30v-248h39L202-35l-2-213h31V0h-41" id="Q"/><g id="d"><use transform="matrix(0.06172839506172839,0,0,0.06172839506172839,0,0)" xlink:href="#P"/><use transform="matrix(0.06172839506172839,0,0,0.06172839506172839,6.172839506172839,0)" xlink:href="#Q"/></g><path fill="#fff" d="M100-194c62-1 85 37 85 99 1 63-27 99-86 99S16-35 15-95c0-66 28-99 85-99zM99-20c44 1 53-31 53-75 0-43-8-75-51-75s-53 32-53 75 10 74 51 75" id="R"/><path fill="#fff" d="M16-82v-28h88v28H16" id="S"/><path fill="#fff" d="M24-231v-30h32v30H24zM24 0v-190h32V0H24" id="T"/><path fill="#fff" d="M115-194c55 1 70 41 70 98S169 2 115 4C84 4 66-9 55-30l1 105H24l-1-265h31l2 30c10-21 28-34 59-34zm-8 174c40 0 45-34 45-75s-6-73-45-74c-42 0-51 32-51 76 0 43 10 73 51 73" id="U"/><g id="e"><use transform="matrix(0.06172839506172839,0,0,0.06172839506172839,0,0)" xlink:href="#G"/><use transform="matrix(0.06172839506172839,0,0,0.06172839506172839,12.345679012345679,0)" xlink:href="#D"/><use transform="matrix(0.06172839506172839,0,0,0.06172839506172839,17.22222222222222,0)" xlink:href="#R"/><use transform="matrix(0.06172839506172839,0,0,0.06172839506172839,29.5679012345679,0)" xlink:href="#H"/><use transform="matrix(0.06172839506172839,0,0,0.06172839506172839,40.67901234567901,0)" xlink:href="#I"/><use transform="matrix(0.06172839506172839,0,0,0.06172839506172839,51.79012345679013,0)" xlink:href="#S"/><use transform="matrix(0.06172839506172839,0,0,0.06172839506172839,59.135802469135804,0)" xlink:href="#T"/><use transform="matrix(0.06172839506172839,0,0,0.06172839506172839,64.01234567901234,0)" xlink:href="#U"/><use transform="matrix(0.06172839506172839,0,0,0.06172839506172839,76.35802469135803,0)" xlink:href="#N"/></g><path d="M143 4C61 4 22-44 18-125c-5-107 100-154 193-111 17 8 29 25 37 43l-32 9c-13-25-37-40-76-40-61 0-88 39-88 99 0 61 29 100 91 101 35 0 62-11 79-27v-45h-74v-28h105v86C228-13 192 4 143 4" id="V"/><path d="M100-194c63 0 86 42 84 106H49c0 40 14 67 53 68 26 1 43-12 49-29l28 8c-11 28-37 45-77 45C44 4 14-33 15-96c1-61 26-98 85-98zm52 81c6-60-76-77-97-28-3 7-6 17-6 28h103" id="W"/><path d="M100-194c62-1 85 37 85 99 1 63-27 99-86 99S16-35 15-95c0-66 28-99 85-99zM99-20c44 1 53-31 53-75 0-43-8-75-51-75s-53 32-53 75 10 74 51 75" id="X"/><g id="f"><use transform="matrix(0.06172839506172839,0,0,0.06172839506172839,0,0)" xlink:href="#V"/><use transform="matrix(0.06172839506172839,0,0,0.06172839506172839,17.28395061728395,0)" xlink:href="#W"/><use transform="matrix(0.06172839506172839,0,0,0.06172839506172839,29.629629629629626,0)" xlink:href="#X"/></g><path d="M212-179c-10-28-35-45-73-45-59 0-87 40-87 99 0 60 29 101 89 101 43 0 62-24 78-52l27 14C228-24 195 4 139 4 59 4 22-46 18-125c-6-104 99-153 187-111 19 9 31 26 39 46" id="Y"/><path d="M106-169C34-169 62-67 57 0H25v-261h32l-1 103c12-21 28-36 61-36 89 0 53 116 60 194h-32v-121c2-32-8-49-39-48" id="Z"/><path d="M96-169c-40 0-48 33-48 73s9 75 48 75c24 0 41-14 43-38l32 2c-6 37-31 61-74 61-59 0-76-41-82-99-10-93 101-131 147-64 4 7 5 14 7 22l-32 3c-4-21-16-35-41-35" id="aa"/><path d="M143 0L79-87 56-68V0H24v-261h32v163l83-92h37l-77 82L181 0h-38" id="ab"/><g id="g"><use transform="matrix(0.06172839506172839,0,0,0.06172839506172839,0,0)" xlink:href="#Y"/><use transform="matrix(0.06172839506172839,0,0,0.06172839506172839,15.987654320987653,0)" xlink:href="#Z"/><use transform="matrix(0.06172839506172839,0,0,0.06172839506172839,28.333333333333332,0)" xlink:href="#W"/><use transform="matrix(0.06172839506172839,0,0,0.06172839506172839,40.67901234567901,0)" xlink:href="#aa"/><use transform="matrix(0.06172839506172839,0,0,0.06172839506172839,51.79012345679013,0)" xlink:href="#ab"/></g><path d="M30-248c87 1 191-15 191 75 0 78-77 80-158 76V0H30v-248zm33 125c57 0 124 11 124-50 0-59-68-47-124-48v98" id="ac"/><path d="M141-36C126-15 110 5 73 4 37 3 15-17 15-53c-1-64 63-63 125-63 3-35-9-54-41-54-24 1-41 7-42 31l-33-3c5-37 33-52 76-52 45 0 72 20 72 64v82c-1 20 7 32 28 27v20c-31 9-61-2-59-35zM48-53c0 20 12 33 32 33 41-3 63-29 60-74-43 2-92-5-92 41" id="ad"/><path d="M135-143c-3-34-86-38-87 0 15 53 115 12 119 90S17 21 10-45l28-5c4 36 97 45 98 0-10-56-113-15-118-90-4-57 82-63 122-42 12 7 21 19 24 35" id="ae"/><path d="M85-194c31 0 48 13 60 33l-1-100h32l1 261h-30c-2-10 0-23-3-31C134-8 116 4 85 4 32 4 16-35 15-94c0-66 23-100 70-100zm9 24c-40 0-46 34-46 75 0 40 6 74 45 74 42 0 51-32 51-76 0-42-9-74-50-73" id="af"/><g id="h"><use transform="matrix(0.06172839506172839,0,0,0.06172839506172839,0,0)" xlink:href="#ac"/><use transform="matrix(0.06172839506172839,0,0,0.06172839506172839,14.814814814814813,0)" xlink:href="#ad"/><use transform="matrix(0.06172839506172839,0,0,0.06172839506172839,27.160493827160494,0)" xlink:href="#ae"/><use transform="matrix(0.06172839506172839,0,0,0.06172839506172839,38.27160493827161,0)" xlink:href="#ae"/><use transform="matrix(0.06172839506172839,0,0,0.06172839506172839,49.38271604938272,0)" xlink:href="#W"/><use transform="matrix(0.06172839506172839,0,0,0.06172839506172839,61.7283950617284,0)" xlink:href="#af"/></g><path fill="#fff" d="M85-194c31 0 48 13 60 33l-1-100h32l1 261h-30c-2-10 0-23-3-31C134-8 116 4 85 4 32 4 16-35 15-94c0-66 23-100 70-100zm9 24c-40 0-46 34-46 75 0 40 6 74 45 74 42 0 51-32 51-76 0-42-9-74-50-73" id="ag"/><path fill="#fff" d="M114-163C36-179 61-72 57 0H25l-1-190h30c1 12-1 29 2 39 6-27 23-49 58-41v29" id="ah"/><g id="i"><use transform="matrix(0.06172839506172839,0,0,0.06172839506172839,0,0)" xlink:href="#G"/><use transform="matrix(0.06172839506172839,0,0,0.06172839506172839,12.345679012345679,0)" xlink:href="#D"/><use transform="matrix(0.06172839506172839,0,0,0.06172839506172839,17.22222222222222,0)" xlink:href="#R"/><use transform="matrix(0.06172839506172839,0,0,0.06172839506172839,29.5679012345679,0)" xlink:href="#H"/><use transform="matrix(0.06172839506172839,0,0,0.06172839506172839,40.67901234567901,0)" xlink:href="#I"/><use transform="matrix(0.06172839506172839,0,0,0.06172839506172839,51.79012345679013,0)" xlink:href="#S"/><use transform="matrix(0.06172839506172839,0,0,0.06172839506172839,59.135802469135804,0)" xlink:href="#H"/><use transform="matrix(0.06172839506172839,0,0,0.06172839506172839,70.24691358024691,0)" xlink:href="#T"/><use transform="matrix(0.06172839506172839,0,0,0.06172839506172839,75.12345679012346,0)" xlink:href="#ag"/><use transform="matrix(0.06172839506172839,0,0,0.06172839506172839,87.46913580246914,0)" xlink:href="#ah"/></g><path fill="#fff" d="M9 0v-24l116-142H16v-24h144v24L44-24h123V0H9" id="ai"/><g id="j"><use transform="matrix(0.06172839506172839,0,0,0.06172839506172839,0,0)" xlink:href="#G"/><use transform="matrix(0.06172839506172839,0,0,0.06172839506172839,12.345679012345679,0)" xlink:href="#D"/><use transform="matrix(0.06172839506172839,0,0,0.06172839506172839,17.22222222222222,0)" xlink:href="#R"/><use transform="matrix(0.06172839506172839,0,0,0.06172839506172839,29.5679012345679,0)" xlink:href="#H"/><use transform="matrix(0.06172839506172839,0,0,0.06172839506172839,40.67901234567901,0)" xlink:href="#I"/><use transform="matrix(0.06172839506172839,0,0,0.06172839506172839,51.79012345679013,0)" xlink:href="#S"/><use transform="matrix(0.06172839506172839,0,0,0.06172839506172839,59.135802469135804,0)" xlink:href="#ai"/><use transform="matrix(0.06172839506172839,0,0,0.06172839506172839,70.24691358024691,0)" xlink:href="#T"/><use transform="matrix(0.06172839506172839,0,0,0.06172839506172839,75.12345679012346,0)" xlink:href="#U"/></g><path fill="#fff" d="M210-169c-67 3-38 105-44 169h-31v-121c0-29-5-50-35-48C34-165 62-65 56 0H25l-1-190h30c1 10-1 24 2 32 10-44 99-50 107 0 11-21 27-35 58-36 85-2 47 119 55 194h-31v-121c0-29-5-49-35-48" id="aj"/><g id="k"><use transform="matrix(0.06172839506172839,0,0,0.06172839506172839,0,0)" xlink:href="#G"/><use transform="matrix(0.06172839506172839,0,0,0.06172839506172839,12.345679012345679,0)" xlink:href="#D"/><use transform="matrix(0.06172839506172839,0,0,0.06172839506172839,17.22222222222222,0)" xlink:href="#R"/><use transform="matrix(0.06172839506172839,0,0,0.06172839506172839,29.5679012345679,0)" xlink:href="#H"/><use transform="matrix(0.06172839506172839,0,0,0.06172839506172839,40.67901234567901,0)" xlink:href="#I"/><use transform="matrix(0.06172839506172839,0,0,0.06172839506172839,51.79012345679013,0)" xlink:href="#S"/><use transform="matrix(0.06172839506172839,0,0,0.06172839506172839,59.135802469135804,0)" xlink:href="#ag"/><use transform="matrix(0.06172839506172839,0,0,0.06172839506172839,71.48148148148148,0)" xlink:href="#aj"/><use transform="matrix(0.06172839506172839,0,0,0.06172839506172839,89.93827160493827,0)" xlink:href="#E"/></g><g id="l"><use transform="matrix(0.06172839506172839,0,0,0.06172839506172839,0,0)" xlink:href="#P"/><use transform="matrix(0.06172839506172839,0,0,0.06172839506172839,6.172839506172839,0)" xlink:href="#Q"/></g><path fill="#fff" d="M117-194c89-4 53 116 60 194h-32v-121c0-31-8-49-39-48C34-167 62-67 57 0H25l-1-190h30c1 10-1 24 2 32 11-22 29-35 61-36" id="ak"/><g id="m"><use transform="matrix(0.06172839506172839,0,0,0.06172839506172839,0,0)" xlink:href="#G"/><use transform="matrix(0.06172839506172839,0,0,0.06172839506172839,12.345679012345679,0)" xlink:href="#D"/><use transform="matrix(0.06172839506172839,0,0,0.06172839506172839,17.22222222222222,0)" xlink:href="#R"/><use transform="matrix(0.06172839506172839,0,0,0.06172839506172839,29.5679012345679,0)" xlink:href="#H"/><use transform="matrix(0.06172839506172839,0,0,0.06172839506172839,40.67901234567901,0)" xlink:href="#I"/><use transform="matrix(0.06172839506172839,0,0,0.06172839506172839,51.79012345679013,0)" xlink:href="#S"/><use transform="matrix(0.06172839506172839,0,0,0.06172839506172839,59.135802469135804,0)" xlink:href="#H"/><use transform="matrix(0.06172839506172839,0,0,0.06172839506172839,70.24691358024691,0)" xlink:href="#R"/><use transform="matrix(0.06172839506172839,0,0,0.06172839506172839,82.5925925925926,0)" xlink:href="#M"/><use transform="matrix(0.06172839506172839,0,0,0.06172839506172839,94.93827160493828,0)" xlink:href="#ak"/><use transform="matrix(0.06172839506172839,0,0,0.06172839506172839,107.28395061728396,0)" xlink:href="#O"/><use transform="matrix(0.06172839506172839,0,0,0.06172839506172839,113.4567901234568,0)" xlink:href="#ah"/><use transform="matrix(0.06172839506172839,0,0,0.06172839506172839,120.80246913580248,0)" xlink:href="#F"/></g><path fill="#333" d="M190 0L58-211 59 0H30v-248h39L202-35l-2-213h31V0h-41" id="al"/><path fill="#333" d="M100-194c62-1 85 37 85 99 1 63-27 99-86 99S16-35 15-95c0-66 28-99 85-99zM99-20c44 1 53-31 53-75 0-43-8-75-51-75s-53 32-53 75 10 74 51 75" id="am"/><g id="n"><use transform="matrix(0.06172839506172839,0,0,0.06172839506172839,0,0)" xlink:href="#al"/><use transform="matrix(0.06172839506172839,0,0,0.06172839506172839,15.987654320987653,0)" xlink:href="#am"/></g><path d="M24 0v-261h32V0H24" id="an"/><path d="M206 0h-36l-40-164L89 0H53L-1-190h32L70-26l43-164h34l41 164 42-164h31" id="ao"/><path d="M-5 72V49h209v23H-5" id="ap"/><g id="o"><use transform="matrix(0.06172839506172839,0,0,0.06172839506172839,0,0)" xlink:href="#ad"/><use transform="matrix(0.06172839506172839,0,0,0.06172839506172839,12.345679012345679,0)" xlink:href="#an"/><use transform="matrix(0.06172839506172839,0,0,0.06172839506172839,17.22222222222222,0)" xlink:href="#an"/><use transform="matrix(0.06172839506172839,0,0,0.06172839506172839,22.098765432098766,0)" xlink:href="#X"/><use transform="matrix(0.06172839506172839,0,0,0.06172839506172839,34.44444444444444,0)" xlink:href="#ao"/><use transform="matrix(0.06172839506172839,0,0,0.06172839506172839,50.432098765432094,0)" xlink:href="#ap"/><use transform="matrix(0.06172839506172839,0,0,0.06172839506172839,62.77777777777777,0)" xlink:href="#ad"/><use transform="matrix(0.06172839506172839,0,0,0.06172839506172839,75.12345679012346,0)" xlink:href="#an"/><use transform="matrix(0.06172839506172839,0,0,0.06172839506172839,80,0)" xlink:href="#an"/></g><path fill="#fff" d="M232-93c-1 65-40 97-104 97C67 4 28-28 28-90v-158h33c8 89-33 224 67 224 102 0 64-133 71-224h33v155" id="aq"/><path fill="#fff" d="M106-169C34-169 62-67 57 0H25v-261h32l-1 103c12-21 28-36 61-36 89 0 53 116 60 194h-32v-121c2-32-8-49-39-48" id="ar"/><g id="p"><use transform="matrix(0.06172839506172839,0,0,0.06172839506172839,0,0)" xlink:href="#aq"/><use transform="matrix(0.06172839506172839,0,0,0.06172839506172839,15.987654320987653,0)" xlink:href="#ak"/><use transform="matrix(0.06172839506172839,0,0,0.06172839506172839,28.333333333333332,0)" xlink:href="#E"/><use transform="matrix(0.06172839506172839,0,0,0.06172839506172839,40.67901234567901,0)" xlink:href="#M"/><use transform="matrix(0.06172839506172839,0,0,0.06172839506172839,53.02469135802469,0)" xlink:href="#O"/><use transform="matrix(0.06172839506172839,0,0,0.06172839506172839,59.19753086419753,0)" xlink:href="#ar"/><use transform="matrix(0.06172839506172839,0,0,0.06172839506172839,71.54320987654322,0)" xlink:href="#R"/><use transform="matrix(0.06172839506172839,0,0,0.06172839506172839,83.8888888888889,0)" xlink:href="#ah"/><use transform="matrix(0.06172839506172839,0,0,0.06172839506172839,91.23456790123458,0)" xlink:href="#T"/><use transform="matrix(0.06172839506172839,0,0,0.06172839506172839,96.11111111111113,0)" xlink:href="#ai"/><use transform="matrix(0.06172839506172839,0,0,0.06172839506172839,107.22222222222224,0)" xlink:href="#K"/><use transform="matrix(0.06172839506172839,0,0,0.06172839506172839,119.56790123456793,0)" xlink:href="#ag"/></g><path d="M33 0v-248h34V0H33" id="as"/><path d="M190 0L58-211 59 0H30v-248h39L202-35l-2-213h31V0h-41" id="at"/><g id="q"><use transform="matrix(0.06172839506172839,0,0,0.06172839506172839,0,0)" xlink:href="#as"/><use transform="matrix(0.06172839506172839,0,0,0.06172839506172839,6.172839506172839,0)" xlink:href="#at"/></g><path d="M16-82v-28h88v28H16" id="au"/><path d="M24-231v-30h32v30H24zM24 0v-190h32V0H24" id="av"/><path d="M115-194c55 1 70 41 70 98S169 2 115 4C84 4 66-9 55-30l1 105H24l-1-265h31l2 30c10-21 28-34 59-34zm-8 174c40 0 45-34 45-75s-6-73-45-74c-42 0-51 32-51 76 0 43 10 73 51 73" id="aw"/><g id="r"><use transform="matrix(0.06172839506172839,0,0,0.06172839506172839,0,0)" xlink:href="#ad"/><use transform="matrix(0.06172839506172839,0,0,0.06172839506172839,12.345679012345679,0)" xlink:href="#an"/><use transform="matrix(0.06172839506172839,0,0,0.06172839506172839,17.22222222222222,0)" xlink:href="#an"/><use transform="matrix(0.06172839506172839,0,0,0.06172839506172839,22.098765432098766,0)" xlink:href="#X"/><use transform="matrix(0.06172839506172839,0,0,0.06172839506172839,34.44444444444444,0)" xlink:href="#ao"/><use transform="matrix(0.06172839506172839,0,0,0.06172839506172839,50.432098765432094,0)" xlink:href="#au"/><use transform="matrix(0.06172839506172839,0,0,0.06172839506172839,57.77777777777777,0)" xlink:href="#av"/><use transform="matrix(0.06172839506172839,0,0,0.06172839506172839,62.654320987654316,0)" xlink:href="#aw"/><use transform="matrix(0.06172839506172839,0,0,0.06172839506172839,75,0)" xlink:href="#ae"/></g><path d="M114-163C36-179 61-72 57 0H25l-1-190h30c1 12-1 29 2 39 6-27 23-49 58-41v29" id="ax"/><g id="s"><use transform="matrix(0.06172839506172839,0,0,0.06172839506172839,0,0)" xlink:href="#ad"/><use transform="matrix(0.06172839506172839,0,0,0.06172839506172839,12.345679012345679,0)" xlink:href="#an"/><use transform="matrix(0.06172839506172839,0,0,0.06172839506172839,17.22222222222222,0)" xlink:href="#an"/><use transform="matrix(0.06172839506172839,0,0,0.06172839506172839,22.098765432098766,0)" xlink:href="#X"/><use transform="matrix(0.06172839506172839,0,0,0.06172839506172839,34.44444444444444,0)" xlink:href="#ao"/><use transform="matrix(0.06172839506172839,0,0,0.06172839506172839,50.432098765432094,0)" xlink:href="#au"/><use transform="matrix(0.06172839506172839,0,0,0.06172839506172839,57.77777777777777,0)" xlink:href="#aa"/><use transform="matrix(0.06172839506172839,0,0,0.06172839506172839,68.88888888888889,0)" xlink:href="#av"/><use transform="matrix(0.06172839506172839,0,0,0.06172839506172839,73.76543209876543,0)" xlink:href="#af"/><use transform="matrix(0.06172839506172839,0,0,0.06172839506172839,86.11111111111111,0)" xlink:href="#ax"/></g><path d="M9 0v-24l116-142H16v-24h144v24L44-24h123V0H9" id="ay"/><g id="t"><use transform="matrix(0.06172839506172839,0,0,0.06172839506172839,0,0)" xlink:href="#ad"/><use transform="matrix(0.06172839506172839,0,0,0.06172839506172839,12.345679012345679,0)" xlink:href="#an"/><use transform="matrix(0.06172839506172839,0,0,0.06172839506172839,17.22222222222222,0)" xlink:href="#an"/><use transform="matrix(0.06172839506172839,0,0,0.06172839506172839,22.098765432098766,0)" xlink:href="#X"/><use transform="matrix(0.06172839506172839,0,0,0.06172839506172839,34.44444444444444,0)" xlink:href="#ao"/><use transform="matrix(0.06172839506172839,0,0,0.06172839506172839,50.432098765432094,0)" xlink:href="#au"/><use transform="matrix(0.06172839506172839,0,0,0.06172839506172839,57.77777777777777,0)" xlink:href="#ay"/><use transform="matrix(0.06172839506172839,0,0,0.06172839506172839,68.88888888888889,0)" xlink:href="#av"/><use transform="matrix(0.06172839506172839,0,0,0.06172839506172839,73.76543209876543,0)" xlink:href="#aw"/></g><path d="M210-169c-67 3-38 105-44 169h-31v-121c0-29-5-50-35-48C34-165 62-65 56 0H25l-1-190h30c1 10-1 24 2 32 10-44 99-50 107 0 11-21 27-35 58-36 85-2 47 119 55 194h-31v-121c0-29-5-49-35-48" id="az"/><g id="u"><use transform="matrix(0.06172839506172839,0,0,0.06172839506172839,0,0)" xlink:href="#ad"/><use transform="matrix(0.06172839506172839,0,0,0.06172839506172839,12.345679012345679,0)" xlink:href="#an"/><use transform="matrix(0.06172839506172839,0,0,0.06172839506172839,17.22222222222222,0)" xlink:href="#an"/><use transform="matrix(0.06172839506172839,0,0,0.06172839506172839,22.098765432098766,0)" xlink:href="#X"/><use transform="matrix(0.06172839506172839,0,0,0.06172839506172839,34.44444444444444,0)" xlink:href="#ao"/><use transform="matrix(0.06172839506172839,0,0,0.06172839506172839,50.432098765432094,0)" xlink:href="#au"/><use transform="matrix(0.06172839506172839,0,0,0.06172839506172839,57.77777777777777,0)" xlink:href="#af"/><use transform="matrix(0.06172839506172839,0,0,0.06172839506172839,70.12345679012346,0)" xlink:href="#az"/><use transform="matrix(0.06172839506172839,0,0,0.06172839506172839,88.58024691358024,0)" xlink:href="#ad"/></g><g id="v"><use transform="matrix(0.06172839506172839,0,0,0.06172839506172839,0,0)" xlink:href="#as"/><use transform="matrix(0.06172839506172839,0,0,0.06172839506172839,6.172839506172839,0)" xlink:href="#at"/></g><path d="M84 4C-5 8 30-112 23-190h32v120c0 31 7 50 39 49 72-2 45-101 50-169h31l1 190h-30c-1-10 1-25-2-33-11 22-28 36-60 37" id="aA"/><path d="M117-194c89-4 53 116 60 194h-32v-121c0-31-8-49-39-48C34-167 62-67 57 0H25l-1-190h30c1 10-1 24 2 32 11-22 29-35 61-36" id="aB"/><path d="M59-47c-2 24 18 29 38 22v24C64 9 27 4 27-40v-127H5v-23h24l9-43h21v43h35v23H59v120" id="aC"/><path d="M179-190L93 31C79 59 56 82 12 73V49c39 6 53-20 64-50L1-190h34L92-34l54-156h33" id="aD"/><g id="w"><use transform="matrix(0.06172839506172839,0,0,0.06172839506172839,0,0)" xlink:href="#ad"/><use transform="matrix(0.06172839506172839,0,0,0.06172839506172839,12.345679012345679,0)" xlink:href="#an"/><use transform="matrix(0.06172839506172839,0,0,0.06172839506172839,17.22222222222222,0)" xlink:href="#an"/><use transform="matrix(0.06172839506172839,0,0,0.06172839506172839,22.098765432098766,0)" xlink:href="#X"/><use transform="matrix(0.06172839506172839,0,0,0.06172839506172839,34.44444444444444,0)" xlink:href="#ao"/><use transform="matrix(0.06172839506172839,0,0,0.06172839506172839,50.432098765432094,0)" xlink:href="#au"/><use transform="matrix(0.06172839506172839,0,0,0.06172839506172839,57.77777777777777,0)" xlink:href="#aa"/><use transform="matrix(0.06172839506172839,0,0,0.06172839506172839,68.88888888888889,0)" xlink:href="#X"/><use transform="matrix(0.06172839506172839,0,0,0.06172839506172839,81.23456790123457,0)" xlink:href="#aA"/><use transform="matrix(0.06172839506172839,0,0,0.06172839506172839,93.58024691358025,0)" xlink:href="#aB"/><use transform="matrix(0.06172839506172839,0,0,0.06172839506172839,105.92592592592594,0)" xlink:href="#aC"/><use transform="matrix(0.06172839506172839,0,0,0.06172839506172839,112.09876543209877,0)" xlink:href="#ax"/><use transform="matrix(0.06172839506172839,0,0,0.06172839506172839,119.44444444444446,0)" xlink:href="#aD"/></g><path d="M115-194c53 0 69 39 70 98 0 66-23 100-70 100C84 3 66-7 56-30L54 0H23l1-261h32v101c10-23 28-34 59-34zm-8 174c40 0 45-34 45-75 0-40-5-75-45-74-42 0-51 32-51 76 0 43 10 73 51 73" id="aE"/><g id="x"><use transform="matrix(0.06172839506172839,0,0,0.06172839506172839,0,0)" xlink:href="#aE"/><use transform="matrix(0.06172839506172839,0,0,0.06172839506172839,12.345679012345679,0)" xlink:href="#an"/><use transform="matrix(0.06172839506172839,0,0,0.06172839506172839,17.22222222222222,0)" xlink:href="#X"/><use transform="matrix(0.06172839506172839,0,0,0.06172839506172839,29.5679012345679,0)" xlink:href="#aa"/><use transform="matrix(0.06172839506172839,0,0,0.06172839506172839,40.67901234567901,0)" xlink:href="#ab"/><use transform="matrix(0.06172839506172839,0,0,0.06172839506172839,51.79012345679013,0)" xlink:href="#ap"/><use transform="matrix(0.06172839506172839,0,0,0.06172839506172839,64.13580246913581,0)" xlink:href="#ad"/><use transform="matrix(0.06172839506172839,0,0,0.06172839506172839,76.4814814814815,0)" xlink:href="#an"/><use transform="matrix(0.06172839506172839,0,0,0.06172839506172839,81.35802469135804,0)" xlink:href="#an"/></g><path d="M177-190C167-65 218 103 67 71c-23-6-38-20-44-43l32-5c15 47 100 32 89-28v-30C133-14 115 1 83 1 29 1 15-40 15-95c0-56 16-97 71-98 29-1 48 16 59 35 1-10 0-23 2-32h30zM94-22c36 0 50-32 50-73 0-42-14-75-50-75-39 0-46 34-46 75s6 73 46 73" id="aF"/><path d="M18-150v-26h174v26H18zm0 90v-26h174v26H18" id="aG"/><path d="M109-170H84l-4-78h32zm-65 0H19l-4-78h33" id="aH"/><g id="y"><use transform="matrix(0.06172839506172839,0,0,0.06172839506172839,0,0)" xlink:href="#aF"/><use transform="matrix(0.06172839506172839,0,0,0.06172839506172839,12.345679012345679,0)" xlink:href="#W"/><use transform="matrix(0.06172839506172839,0,0,0.06172839506172839,24.691358024691358,0)" xlink:href="#X"/><use transform="matrix(0.06172839506172839,0,0,0.06172839506172839,37.03703703703704,0)" xlink:href="#ap"/><use transform="matrix(0.06172839506172839,0,0,0.06172839506172839,49.382716049382715,0)" xlink:href="#aF"/><use transform="matrix(0.06172839506172839,0,0,0.06172839506172839,61.72839506172839,0)" xlink:href="#an"/><use transform="matrix(0.06172839506172839,0,0,0.06172839506172839,66.60493827160494,0)" xlink:href="#X"/><use transform="matrix(0.06172839506172839,0,0,0.06172839506172839,78.95061728395062,0)" xlink:href="#aE"/><use transform="matrix(0.06172839506172839,0,0,0.06172839506172839,91.2962962962963,0)" xlink:href="#ad"/><use transform="matrix(0.06172839506172839,0,0,0.06172839506172839,103.64197530864199,0)" xlink:href="#an"/><use transform="matrix(0.06172839506172839,0,0,0.06172839506172839,108.51851851851853,0)" xlink:href="#ap"/><use transform="matrix(0.06172839506172839,0,0,0.06172839506172839,120.86419753086422,0)" xlink:href="#ax"/><use transform="matrix(0.06172839506172839,0,0,0.06172839506172839,128.2098765432099,0)" xlink:href="#aA"/><use transform="matrix(0.06172839506172839,0,0,0.06172839506172839,140.55555555555557,0)" xlink:href="#an"/><use transform="matrix(0.06172839506172839,0,0,0.06172839506172839,145.4320987654321,0)" xlink:href="#W"/><use transform="matrix(0.06172839506172839,0,0,0.06172839506172839,157.77777777777777,0)" xlink:href="#aG"/><use transform="matrix(0.06172839506172839,0,0,0.06172839506172839,170.74074074074073,0)" xlink:href="#aH"/><use transform="matrix(0.06172839506172839,0,0,0.06172839506172839,178.58024691358023,0)" xlink:href="#aH"/></g></defs></g></svg>